<svg viewBox="0 0 800 480" xmlns="http://www.w3.org/2000/svg" role="img" aria-label="Abstract network">
  <defs>
    <linearGradient id="g" x1="0" y1="0" x2="1" y2="1">
      <stop stop-color="#0ea5e9" offset="0"/>
      <stop stop-color="#22c55e" offset="1"/>
    </linearGradient>
  </defs>
  <rect width="800" height="480" fill="url(#g)" opacity=".08"/>
  <g fill="none" stroke="url(#g)" stroke-width="1.5" opacity=".85">
    <path d="M0,300 C120,180 260,220 420,180 C580,140 680,120 800,160"/>
    <path d="M0,340 C140,220 300,260 460,220 C620,180 680,200 800,240"/>
    <path d="M0,380 C140,260 320,320 520,300 C700,280 720,320 800,360"/>
  </g>
  <g fill="url(#g)" opacity=".95">
    <circle cx="120" cy="260" r="4"/>
    <circle cx="340" cy="210" r="4"/>
    <circle cx="520" cy="260" r="4"/>
    <circle cx="700" cy="300" r="4"/>
  </g>
</svg>