<svg viewBox="0 0 960 540" xmlns="http://www.w3.org/2000/svg" role="img" aria-label="Titan mesh">
<defs><linearGradient id="g1" x1="0" y1="0" x2="1" y2="1"><stop stop-color="#67e8f9" offset="0"/><stop stop-color="#a78bfa" offset="1"/></linearGradient></defs>
<rect width="960" height="540" fill="url(#g1)" opacity=".08"/>
<g fill="none" stroke="url(#g1)" stroke-width="1.6" opacity=".9">
<path d="M0,340 C140,220 300,260 480,220 C660,180 740,160 960,200"/>
<path d="M0,380 C160,260 360,300 560,260 C760,220 820,240 960,280"/>
<path d="M0,420 C160,300 380,360 640,340 C820,320 860,360 960,400"/>
</g>
<g fill="url(#g1)"><circle cx="120" cy="300" r="4"/><circle cx="360" cy="260" r="4"/><circle cx="600" cy="300" r="4"/><circle cx="820" cy="340" r="4"/></g>
</svg>